<?xml version="1.0" encoding="UTF-8" standalone="no"?>
<!-- Created with Inkscape (http://www.inkscape.org/) -->

<svg
   width="210mm"
   height="297mm"
   viewBox="0 0 210 297"
   version="1.1"
   id="svg5"
   sodipodi:docname="gn_complejos.svg"
   inkscape:version="1.1.2 (0a00cf5339, 2022-02-04, custom)"
   inkscape:export-filename="/home/seabmo/Documents/Universidad/ITBA/20221Q/9335-LogicaComputacional/Apunte-Latex/teoria/graf/repaso/particion_n_pares_impares.png"
   inkscape:export-xdpi="2.98"
   inkscape:export-ydpi="2.98"
   xmlns:inkscape="http://www.inkscape.org/namespaces/inkscape"
   xmlns:sodipodi="http://sodipodi.sourceforge.net/DTD/sodipodi-0.dtd"
   xmlns="http://www.w3.org/2000/svg"
   xmlns:svg="http://www.w3.org/2000/svg">
  <sodipodi:namedview
     id="namedview7"
     pagecolor="#ffffff"
     bordercolor="#999999"
     borderopacity="1"
     inkscape:pageshadow="0"
     inkscape:pageopacity="0"
     inkscape:pagecheckerboard="0"
     inkscape:document-units="mm"
     showgrid="false"
     inkscape:zoom="0.60221134"
     inkscape:cx="887.56216"
     inkscape:cy="312.18276"
     inkscape:window-width="1346"
     inkscape:window-height="730"
     inkscape:window-x="10"
     inkscape:window-y="28"
     inkscape:window-maximized="1"
     inkscape:current-layer="layer1" />
  <defs
     id="defs2">
    <marker
       style="overflow:visible;"
       id="Arrow2Mend"
       refX="0.0"
       refY="0.0"
       orient="auto"
       inkscape:stockid="Arrow2Mend"
       inkscape:isstock="true">
      <path
         transform="scale(0.6) rotate(180) translate(0,0)"
         d="M 8.7185878,4.0337352 L -2.2072895,0.016013256 L 8.7185884,-4.0017078 C 6.9730900,-1.6296469 6.9831476,1.6157441 8.7185878,4.0337352 z "
         style="stroke:context-stroke;fill-rule:evenodd;fill:context-stroke;stroke-width:0.62500000;stroke-linejoin:round;"
         id="path8437" />
    </marker>
    <marker
       style="overflow:visible;"
       id="marker9039"
       refX="0.0"
       refY="0.0"
       orient="auto"
       inkscape:stockid="Arrow2Lend"
       inkscape:isstock="true">
      <path
         transform="scale(1.1) rotate(180) translate(1,0)"
         d="M 8.7185878,4.0337352 L -2.2072895,0.016013256 L 8.7185884,-4.0017078 C 6.9730900,-1.6296469 6.9831476,1.6157441 8.7185878,4.0337352 z "
         style="stroke:context-stroke;fill-rule:evenodd;fill:context-stroke;stroke-width:0.62500000;stroke-linejoin:round;"
         id="path9037" />
    </marker>
    <marker
       style="overflow:visible;"
       id="Arrow2Lend"
       refX="0.0"
       refY="0.0"
       orient="auto"
       inkscape:stockid="Arrow2Lend"
       inkscape:isstock="true">
      <path
         transform="scale(1.1) rotate(180) translate(1,0)"
         d="M 8.7185878,4.0337352 L -2.2072895,0.016013256 L 8.7185884,-4.0017078 C 6.9730900,-1.6296469 6.9831476,1.6157441 8.7185878,4.0337352 z "
         style="stroke:context-stroke;fill-rule:evenodd;fill:context-stroke;stroke-width:0.62500000;stroke-linejoin:round;"
         id="path8431" />
    </marker>
    <marker
       style="overflow:visible;"
       id="Arrow1Send"
       refX="0.0"
       refY="0.0"
       orient="auto"
       inkscape:stockid="Arrow1Send"
       inkscape:isstock="true">
      <path
         transform="scale(0.2) rotate(180) translate(6,0)"
         style="fill-rule:evenodd;fill:context-stroke;stroke:context-stroke;stroke-width:1.0pt;"
         d="M 0.0,0.0 L 5.0,-5.0 L -12.5,0.0 L 5.0,5.0 L 0.0,0.0 z "
         id="path8425" />
    </marker>
    <marker
       style="overflow:visible;"
       id="marker9013"
       refX="0.0"
       refY="0.0"
       orient="auto"
       inkscape:stockid="Arrow1Lend"
       inkscape:isstock="true">
      <path
         transform="scale(0.8) rotate(180) translate(12.5,0)"
         style="fill-rule:evenodd;fill:context-stroke;stroke:context-stroke;stroke-width:1.0pt;"
         d="M 0.0,0.0 L 5.0,-5.0 L -12.5,0.0 L 5.0,5.0 L 0.0,0.0 z "
         id="path9011" />
    </marker>
    <marker
       style="overflow:visible;"
       id="Arrow1Lend"
       refX="0.0"
       refY="0.0"
       orient="auto"
       inkscape:stockid="Arrow1Lend"
       inkscape:isstock="true">
      <path
         transform="scale(0.8) rotate(180) translate(12.5,0)"
         style="fill-rule:evenodd;fill:context-stroke;stroke:context-stroke;stroke-width:1.0pt;"
         d="M 0.0,0.0 L 5.0,-5.0 L -12.5,0.0 L 5.0,5.0 L 0.0,0.0 z "
         id="path8413" />
    </marker>
    <g
       id="g326">
      <symbol
         overflow="visible"
         id="symbol1555">
        <path
           style="stroke:none;"
           d=""
           id="path5674" />
      </symbol>
      <symbol
         overflow="visible"
         id="symbol1070">
        <path
           style="stroke:none;"
           d="M 1.109375 -5.9375 L 1.109375 -1.0625 C 1.109375 -0.53125 1.03125 -0.359375 0.53125 -0.34375 C 0.421875 -0.34375 0.25 -0.34375 0.25 -0.171875 C 0.25 0 0.40625 0 0.59375 0 L 2.140625 0 C 2.3125 0 2.46875 0 2.46875 -0.171875 C 2.46875 -0.34375 2.296875 -0.34375 2.15625 -0.34375 C 1.609375 -0.359375 1.53125 -0.5625 1.53125 -1.09375 L 1.53125 -5.65625 L 5.84375 0.046875 C 5.9375 0.15625 5.984375 0.1875 6.046875 0.1875 C 6.21875 0.1875 6.21875 0.03125 6.21875 -0.140625 L 6.21875 -5.765625 C 6.21875 -6.328125 6.3125 -6.46875 6.765625 -6.484375 C 6.828125 -6.484375 7 -6.484375 7 -6.65625 C 7 -6.828125 6.84375 -6.828125 6.671875 -6.828125 L 5.21875 -6.828125 C 5.03125 -6.828125 4.875 -6.828125 4.875 -6.65625 C 4.875 -6.484375 5.046875 -6.484375 5.15625 -6.484375 C 5.71875 -6.46875 5.796875 -6.265625 5.796875 -5.734375 L 5.796875 -2.625 L 2.796875 -6.6875 C 2.6875 -6.828125 2.65625 -6.828125 2.4375 -6.828125 L 0.703125 -6.828125 C 0.515625 -6.828125 0.375 -6.828125 0.375 -6.65625 C 0.375 -6.5 0.515625 -6.484375 0.578125 -6.484375 C 0.84375 -6.453125 1.03125 -6.296875 1.140625 -6.171875 C 1.109375 -6.09375 1.109375 -6.078125 1.109375 -5.9375 Z M 5.875 -0.515625 L 1.53125 -6.234375 C 1.4375 -6.359375 1.4375 -6.375 1.328125 -6.484375 L 2.515625 -6.484375 L 5.875 -1.9375 Z M 5.875 -0.515625 "
           id="path8661" />
      </symbol>
    </g>
    <marker
       style="overflow:visible"
       id="Arrow1Lend-7"
       refX="0"
       refY="0"
       orient="auto"
       inkscape:stockid="Arrow1Lend"
       inkscape:isstock="true">
      <path
         transform="matrix(-0.8,0,0,-0.8,-10,0)"
         style="fill:context-stroke;fill-rule:evenodd;stroke:context-stroke;stroke-width:1pt"
         d="M 0,0 5,-5 -12.5,0 5,5 Z"
         id="path8413-5" />
    </marker>
    <g
       id="g3370">
      <symbol
         overflow="visible"
         id="symbol8264">
        <path
           style="stroke:none;"
           d=""
           id="path4435" />
      </symbol>
      <symbol
         overflow="visible"
         id="symbol6">
        <path
           style="stroke:none;"
           d="M 1.578125 -7.125 C 1.578125 -7.296875 1.578125 -7.484375 1.390625 -7.484375 C 1.1875 -7.484375 1.1875 -7.296875 1.1875 -7.125 L 1.1875 2.140625 C 1.1875 2.3125 1.1875 2.5 1.390625 2.5 C 1.578125 2.5 1.578125 2.3125 1.578125 2.140625 Z M 1.578125 -7.125 "
           id="path3255" />
      </symbol>
      <symbol
         overflow="visible"
         id="symbol7709">
        <path
           style="stroke:none;"
           d=""
           id="path2431" />
      </symbol>
      <symbol
         overflow="visible"
         id="symbol7590">
        <path
           style="stroke:none;"
           d="M 7.171875 -6.5625 C 7.1875 -6.609375 7.203125 -6.65625 7.203125 -6.71875 C 7.203125 -6.8125 7.15625 -6.8125 6.953125 -6.8125 L 2.75 -6.8125 C 2.515625 -6.8125 2.5 -6.796875 2.4375 -6.609375 L 1.890625 -4.8125 C 1.875 -4.765625 1.859375 -4.6875 1.859375 -4.671875 C 1.859375 -4.671875 1.859375 -4.5625 1.984375 -4.5625 C 2.078125 -4.5625 2.09375 -4.640625 2.109375 -4.671875 C 2.5 -5.84375 3.015625 -6.5 4.5625 -6.5 L 6.1875 -6.5 L 0.625 -0.265625 C 0.625 -0.265625 0.578125 -0.125 0.578125 -0.09375 C 0.578125 0 0.640625 0 0.828125 0 L 5.15625 0 C 5.40625 0 5.40625 -0.015625 5.46875 -0.203125 L 6.1875 -2.40625 C 6.1875 -2.4375 6.21875 -2.515625 6.21875 -2.546875 C 6.21875 -2.609375 6.1875 -2.65625 6.09375 -2.65625 C 6 -2.65625 5.984375 -2.625 5.921875 -2.40625 C 5.484375 -1.0625 5 -0.34375 3.3125 -0.34375 L 1.609375 -0.34375 Z M 7.171875 -6.5625 "
           id="path3838" />
      </symbol>
    </g>
    <g
       id="g4193">
      <symbol
         overflow="visible"
         id="symbol5116">
        <path
           style="stroke:none;"
           d=""
           id="path7438" />
      </symbol>
      <symbol
         overflow="visible"
         id="symbol3360">
        <path
           style="stroke:none;"
           d="M 7.171875 -6.5625 C 7.1875 -6.609375 7.203125 -6.65625 7.203125 -6.71875 C 7.203125 -6.8125 7.15625 -6.8125 6.953125 -6.8125 L 2.75 -6.8125 C 2.515625 -6.8125 2.5 -6.796875 2.4375 -6.609375 L 1.890625 -4.8125 C 1.875 -4.765625 1.859375 -4.6875 1.859375 -4.671875 C 1.859375 -4.671875 1.859375 -4.5625 1.984375 -4.5625 C 2.078125 -4.5625 2.09375 -4.640625 2.109375 -4.671875 C 2.5 -5.84375 3.015625 -6.5 4.5625 -6.5 L 6.1875 -6.5 L 0.625 -0.265625 C 0.625 -0.265625 0.578125 -0.125 0.578125 -0.09375 C 0.578125 0 0.640625 0 0.828125 0 L 5.15625 0 C 5.40625 0 5.40625 -0.015625 5.46875 -0.203125 L 6.1875 -2.40625 C 6.1875 -2.4375 6.21875 -2.515625 6.21875 -2.546875 C 6.21875 -2.609375 6.1875 -2.65625 6.09375 -2.65625 C 6 -2.65625 5.984375 -2.625 5.921875 -2.40625 C 5.484375 -1.0625 5 -0.34375 3.3125 -0.34375 L 1.609375 -0.34375 Z M 7.171875 -6.5625 "
           id="path3484" />
      </symbol>
    </g>
    <g
       id="g3265">
      <symbol
         overflow="visible"
         id="symbol7018">
        <path
           style="stroke:none;"
           d=""
           id="path5172" />
      </symbol>
      <symbol
         overflow="visible"
         id="symbol4738">
        <path
           style="stroke:none;"
           d="M 7.171875 -6.5625 C 7.1875 -6.609375 7.203125 -6.65625 7.203125 -6.71875 C 7.203125 -6.8125 7.15625 -6.8125 6.953125 -6.8125 L 2.75 -6.8125 C 2.515625 -6.8125 2.5 -6.796875 2.4375 -6.609375 L 1.890625 -4.8125 C 1.875 -4.765625 1.859375 -4.6875 1.859375 -4.671875 C 1.859375 -4.671875 1.859375 -4.5625 1.984375 -4.5625 C 2.078125 -4.5625 2.09375 -4.640625 2.109375 -4.671875 C 2.5 -5.84375 3.015625 -6.5 4.5625 -6.5 L 6.1875 -6.5 L 0.625 -0.265625 C 0.625 -0.265625 0.578125 -0.125 0.578125 -0.09375 C 0.578125 0 0.640625 0 0.828125 0 L 5.15625 0 C 5.40625 0 5.40625 -0.015625 5.46875 -0.203125 L 6.1875 -2.40625 C 6.1875 -2.4375 6.21875 -2.515625 6.21875 -2.546875 C 6.21875 -2.609375 6.1875 -2.65625 6.09375 -2.65625 C 6 -2.65625 5.984375 -2.625 5.921875 -2.40625 C 5.484375 -1.0625 5 -0.34375 3.3125 -0.34375 L 1.609375 -0.34375 Z M 7.171875 -6.5625 "
           id="path4299" />
      </symbol>
    </g>
  </defs>
  <g
     inkscape:label="Layer 1"
     inkscape:groupmode="layer"
     id="layer1">
    <circle
       style="fill:none;stroke:#808080;stroke-width:1.02398;stroke-linecap:round;stroke-linejoin:round;stroke-miterlimit:4;stroke-dasharray:none"
       id="path879"
       cx="114.40156"
       cy="123.54951"
       r="49.48801"
       inkscape:export-filename="/home/seabmo/Documents/Universidad/ITBA/20221Q/9335-LogicaComputacional/Apunte-Latex/teoria/graf/repaso/particion_n_pares_impares.png"
       inkscape:export-xdpi="96.038307"
       inkscape:export-ydpi="96.038307" />
    <path
       style="fill:none;stroke:#000000;stroke-width:0.501244;stroke-linecap:butt;stroke-linejoin:miter;stroke-miterlimit:4;stroke-dasharray:none;stroke-opacity:1;marker-end:url(#Arrow1Lend)"
       d="m 26.902766,123.54951 c 174.024484,0 174.024484,0 174.024484,0"
       id="path8328" />
    <path
       style="fill:none;stroke:#000000;stroke-width:0.501244;stroke-linecap:butt;stroke-linejoin:miter;stroke-miterlimit:4;stroke-dasharray:none;stroke-opacity:1;marker-end:url(#Arrow1Lend-7)"
       d="m 114.40156,211.0483 c 0,-174.024483 0,-174.024483 0,-174.024483"
       id="path8328-3" />
    <text
       xml:space="preserve"
       style="font-size:10.5833px;line-height:1.25;font-family:'IBM Plex Mono';-inkscape-font-specification:'IBM Plex Mono';stroke-width:0.264583"
       x="169.09044"
       y="138.22057"
       id="text2826"><tspan
         sodipodi:role="line"
         id="tspan2824"
         style="stroke-width:0.264583"
         x="169.09044"
         y="138.22057">1</tspan></text>
    <text
       xml:space="preserve"
       style="font-size:10.5833px;line-height:1.25;font-family:'IBM Plex Mono';-inkscape-font-specification:'IBM Plex Mono';stroke-width:0.264583"
       x="117.82055"
       y="68.259201"
       id="text2826-1"><tspan
         sodipodi:role="line"
         id="tspan2824-6"
         style="stroke-width:0.264583"
         x="117.82055"
         y="68.259201">i</tspan></text>
    <text
       xml:space="preserve"
       style="font-size:10.5833px;line-height:1.25;font-family:'IBM Plex Mono';-inkscape-font-specification:'IBM Plex Mono';stroke-width:0.264583"
       x="97.112137"
       y="184.82878"
       id="text2826-1-6"><tspan
         sodipodi:role="line"
         id="tspan2824-6-2"
         style="stroke-width:0.264583"
         x="97.112137"
         y="184.82878">-i</tspan></text>
    <text
       xml:space="preserve"
       style="font-size:10.5833px;line-height:1.25;font-family:'IBM Plex Mono';-inkscape-font-specification:'IBM Plex Mono';stroke-width:0.264583"
       x="48.408695"
       y="138.22057"
       id="text2826-8"><tspan
         sodipodi:role="line"
         id="tspan2824-5"
         style="stroke-width:0.264583"
         x="48.408695"
         y="138.22057">-1</tspan></text>
    <ellipse
       style="fill:#808080;stroke:#808080;stroke-width:0.300639;stroke-linecap:round;stroke-linejoin:round;stroke-opacity:0.67"
       id="path10831"
       cx="114.31087"
       cy="74.867172"
       rx="3.4041109"
       ry="3.6452067" />
    <ellipse
       style="fill:#808080;stroke:#808080;stroke-width:0.300639;stroke-linecap:round;stroke-linejoin:round;stroke-opacity:0.67"
       id="path10831-4"
       cx="163.16487"
       cy="124.41416"
       rx="3.4041109"
       ry="3.6452067" />
  </g>
</svg>
